HIERARCHY
ROOT Hips
{
	OFFSET 0.000000 0.000000 0.000000
	CHANNELS 6 Xposition Yposition Zposition Xrotation Yrotation Zrotation
	JOINT LeftUpLeg_virtual
	{
		OFFSET 0.000000 0.000000 0.000000
		CHANNELS 3 Xrotation Yrotation Zrotation
		JOINT LeftUpLeg
		{
			OFFSET 11.394100 -6.187798 -0.413800
			CHANNELS 3 Xrotation Yrotation Zrotation
			JOINT LeftLeg
			{
				OFFSET 0.430247 -32.302673 3.732800
				CHANNELS 3 Xrotation Yrotation Zrotation
				JOINT LeftFoot
				{
					OFFSET -0.430247 -48.264931 -6.423300
					CHANNELS 3 Xrotation Yrotation Zrotation
					JOINT LeftToeBase
					{
						OFFSET 4.230900 -16.068199 23.438400
						CHANNELS 3 Xrotation Yrotation Zrotation
						JOINT LeftToe_End
						{
							OFFSET 4.510700 0.695400 19.974600
							CHANNELS 3 Xrotation Yrotation Zrotation
							End Site
							{
								OFFSET 0 0 0
							}
						}
					}
				}
			}
		}
	}
	JOINT RightUpLeg_virtual
	{
		OFFSET 0.000000 0.000000 0.000000
		CHANNELS 3 Xrotation Yrotation Zrotation
		JOINT RightUpLeg
		{
			OFFSET -11.333700 -6.187798 -0.413800
			CHANNELS 3 Xrotation Yrotation Zrotation
			JOINT RightLeg
			{
				OFFSET -0.430392 -32.302628 3.733000
				CHANNELS 3 Xrotation Yrotation Zrotation
				JOINT RightFoot
				{
					OFFSET 0.430392 -48.264973 -6.423500
					CHANNELS 3 Xrotation Yrotation Zrotation
					JOINT RightToeBase
					{
						OFFSET -4.230900 -16.068199 23.438400
						CHANNELS 3 Xrotation Yrotation Zrotation
						JOINT RightToe_End
						{
							OFFSET -4.510700 0.695400 19.974600
							CHANNELS 3 Xrotation Yrotation Zrotation
							End Site
							{
								OFFSET 0 0 0
							}
						}
					}
				}
			}
		}
	}
	JOINT Spine_virtual
	{
		OFFSET 0.000000 0.000000 0.000000
		CHANNELS 3 Xrotation Yrotation Zrotation
		JOINT Spine
		{
			OFFSET -0.002400 12.777504 0.315300
			CHANNELS 3 Xrotation Yrotation Zrotation
			JOINT Spine1
			{
				OFFSET -0.002067 5.816869 0.032633
				CHANNELS 3 Xrotation Yrotation Zrotation
				JOINT Spine1_split
				{
					OFFSET -0.002067 5.816869 0.032633
					CHANNELS 3 Xrotation Yrotation Zrotation
					JOINT Spine2
					{
						OFFSET -0.002067 5.816869 0.032633
						CHANNELS 3 Xrotation Yrotation Zrotation
						JOINT Neck_virtual
						{
							OFFSET 0.000000 0.000000 0.000000
							CHANNELS 3 Xrotation Yrotation Zrotation
							JOINT Neck
							{
								OFFSET -0.003700 21.199493 -0.826900
								CHANNELS 3 Xrotation Yrotation Zrotation
								JOINT Head
								{
									OFFSET 0.000000 20.442200 4.834800
									CHANNELS 3 Xrotation Yrotation Zrotation
									JOINT HeadTop_End
									{
										OFFSET 0.000000 34.668396 4.968400
										CHANNELS 3 Xrotation Yrotation Zrotation
										End Site
										{
											OFFSET 0 0 0
										}
									}
								}
							}
						}
						JOINT LeftShoulder_virtual
						{
							OFFSET 0.000000 0.000000 0.000000
							CHANNELS 3 Xrotation Yrotation Zrotation
							JOINT LeftShoulder
							{
								OFFSET 3.288150 8.794197 -1.372250
								CHANNELS 3 Xrotation Yrotation Zrotation
								JOINT LeftShoulder_split
								{
									OFFSET 3.288150 8.794197 -1.372250
									CHANNELS 3 Xrotation Yrotation Zrotation
									JOINT LeftArm
									{
										OFFSET 11.953299 -2.279007 -0.146200
										CHANNELS 3 Xrotation Yrotation Zrotation
										JOINT LeftForeArm
										{
											OFFSET 18.448900 0.000000 0.000000
											CHANNELS 3 Xrotation Yrotation Zrotation
											JOINT LeftHand
											{
												OFFSET 29.527798 0.000000 0.000000
												CHANNELS 3 Xrotation Yrotation Zrotation
												End Site
												{
													OFFSET 0 0 0
												}
											}
										}
									}
								}
							}
						}
						JOINT RightShoulder_virtual
						{
							OFFSET 0.000000 0.000000 0.000000
							CHANNELS 3 Xrotation Yrotation Zrotation
							JOINT RightShoulder
							{
								OFFSET -3.249400 8.794197 -1.372250
								CHANNELS 3 Xrotation Yrotation Zrotation
								JOINT RightShoulder_split
								{
									OFFSET -3.249400 8.794197 -1.372250
									CHANNELS 3 Xrotation Yrotation Zrotation
									JOINT RightArm
									{
										OFFSET -11.953299 -2.279007 -0.146200
										CHANNELS 3 Xrotation Yrotation Zrotation
										JOINT RightForeArm
										{
											OFFSET -18.448900 0.000000 0.000000
											CHANNELS 3 Xrotation Yrotation Zrotation
											JOINT RightHand
											{
												OFFSET -29.527802 0.000000 0.000000
												CHANNELS 3 Xrotation Yrotation Zrotation
												End Site
												{
													OFFSET 0 0 0
												}
											}
										}
									}
								}
							}
						}
					}
				}
			}
		}
	}
}
MOTION
Frames: 6
Frame Time: 0.03333333
-23.094343 138.372955 33.720261 0.000000 0.000000 0.000000 1.981283 -19.324584 1.255346 -27.112357 9.221361 3.906670 37.737741 8.470486 4.056635 30.043250 -0.407171 -1.966270 -0.000040 0.000001 -0.000018 0.000000 0.000000 0.000000 1.981283 -19.324584 1.255346 -5.661232 -7.301570 -4.220284 20.210400 -21.523483 4.205050 36.253818 -3.015860 -2.700867 -0.254709 0.048031 -0.222042 0.000000 0.000000 0.000000 1.981283 -19.324584 1.255346 -1.422390 -0.140781 -0.123899 -2.849546 -0.229108 -1.624431 0.000000 0.000000 0.000000 0.000000 0.000000 0.000000 -2.849543 -0.229103 -1.624431 -27.415812 2.071720 -0.405987 -8.884824 0.776538 3.209521 0.000000 0.000000 0.000000 -2.849543 -0.229103 -1.624431 4.781803 6.071384 25.311125 0.000000 0.000000 0.000000 -58.312767 -25.193202 16.875541 -25.969875 -55.829574 7.584471 0.000000 0.000000 0.000000 -2.849543 -0.229103 -1.624431 -3.148152 -6.622063 -28.188286 0.000000 0.000000 0.000000 -74.921206 31.517252 20.078733 -28.646402 45.441074 -7.798857 0.000000 0.000000 0.000000 
-23.208567 136.061340 34.894634 0.000000 0.000000 0.000000 1.243651 -17.598438 0.643685 -28.433727 8.553704 3.825396 39.112976 12.028597 2.984078 35.812246 0.349138 1.515477 -0.000006 0.000001 -0.000022 0.000000 0.000000 0.000000 1.243651 -17.598438 0.643685 -8.284342 -7.157237 -4.201714 21.857293 -19.504433 2.522120 41.309264 -1.495539 -3.341529 -0.000055 0.000001 0.000072 0.000000 0.000000 0.000000 1.243651 -17.598438 0.643685 -1.643730 -0.154340 0.029322 -3.292606 -0.278829 -1.303055 0.000000 0.000000 0.000000 0.000000 0.000000 0.000000 -3.292604 -0.278815 -1.303054 -24.829286 1.898692 -2.852156 -11.555615 -0.586101 4.627739 0.000000 0.000000 0.000000 -3.292604 -0.278815 -1.303054 6.717991 6.329315 27.810083 0.000000 0.000000 0.000000 -55.092586 -13.574159 10.508930 -20.927954 -71.280141 15.947389 0.000000 0.000000 0.000000 -3.292604 -0.278815 -1.303054 -0.962620 -3.617258 -26.818753 0.000000 0.000000 0.000000 -63.904268 30.681121 10.710911 -28.415909 46.120395 -0.431018 0.000000 0.000000 0.000000 
-23.378124 133.569458 36.130531 0.000000 0.000000 0.000000 0.343249 -15.285192 0.027317 -29.018182 7.993936 4.167527 40.457512 14.534062 1.343781 39.310133 1.596934 5.032462 -0.000012 -0.000001 -0.000019 0.000000 0.000000 0.000000 0.343249 -15.285192 0.027317 -9.951051 -7.898444 -4.367659 23.430990 -15.981058 1.472252 44.855454 -0.930445 -1.561859 -0.000048 -0.000007 0.000072 0.000000 0.000000 0.000000 0.343249 -15.285192 0.027317 -2.032773 -0.078050 0.311014 -4.067671 -0.134284 -0.708513 0.000000 0.000000 0.000000 0.000000 0.000000 0.000000 -4.067670 -0.134282 -0.708513 -23.990380 2.384002 -5.202906 -10.704736 -2.187142 5.398437 0.000000 0.000000 0.000000 -4.067670 -0.134282 -0.708513 7.397605 6.276446 30.124778 0.000000 0.000000 0.000000 -50.546207 -14.728034 7.822474 -23.333256 -64.851697 15.435994 0.000000 0.000000 0.000000 -4.067670 -0.134282 -0.708513 0.236020 -5.224694 -28.113383 0.000000 0.000000 0.000000 -56.133783 28.750056 7.183380 -28.925667 47.084763 12.393191 0.000000 0.000000 0.000000 
-23.661444 131.409515 37.493465 0.000000 0.000000 0.000000 -0.461596 -12.538389 -0.425613 -29.148249 7.928875 3.164752 40.931643 16.028953 2.089674 40.592484 2.158696 6.820247 -0.000016 -0.000002 -0.000015 0.000000 0.000000 0.000000 -0.461596 -12.538389 -0.425613 -10.489565 -7.912357 -4.220754 24.591990 -15.268248 0.860941 46.632792 -0.138950 0.361288 -0.000022 -0.000005 0.000069 0.000000 0.000000 0.000000 -0.461596 -12.538389 -0.425613 -2.519593 -0.041406 0.546955 -5.039999 -0.061266 -0.169478 0.000000 0.000000 0.000000 0.000000 0.000000 0.000000 -5.040000 -0.061263 -0.169479 -23.827139 1.903167 -5.577697 -8.470731 -2.059548 4.806331 0.000000 0.000000 0.000000 -5.040000 -0.061263 -0.169479 7.348067 6.827393 32.197655 0.000000 0.000000 0.000000 -50.084363 -16.986042 5.313342 -25.169426 -57.653675 7.865957 0.000000 0.000000 0.000000 -5.040000 -0.061263 -0.169479 -1.010191 -6.529069 -31.967853 0.000000 0.000000 0.000000 -55.410832 34.083160 9.550123 -24.192434 35.946927 6.614260 0.000000 0.000000 0.000000 
-24.060755 129.842499 38.995850 0.000000 0.000000 0.000000 -0.954126 -9.704067 -0.609892 -29.118135 8.764825 3.713997 41.457643 15.208922 1.255559 39.733263 2.556482 8.568301 0.000015 0.000003 -0.000019 0.000000 0.000000 0.000000 -0.954126 -9.704067 -0.609892 -10.243354 -7.747262 -4.619852 25.357875 -16.044574 1.850834 47.079592 0.114480 1.162065 -0.000056 -0.000018 0.000085 0.000000 0.000000 0.000000 -0.954126 -9.704067 -0.609892 -3.029536 -0.023614 0.603526 -6.059363 -0.019088 0.004834 0.000000 0.000000 0.000000 0.000000 0.000000 0.000000 -6.059355 -0.019083 0.004834 -23.872459 1.354871 -4.509962 -6.634651 -1.879435 3.543042 0.000000 0.000000 0.000000 -6.059355 -0.019083 0.004834 6.152875 8.048888 34.407672 0.000000 0.000000 0.000000 -51.875147 -22.068707 0.441654 -23.786837 -48.661840 4.290981 0.000000 0.000000 0.000000 -6.059355 -0.019083 0.004834 -0.117884 -7.940962 -34.996499 0.000000 0.000000 0.000000 -60.812726 37.491851 15.540536 -22.381154 26.520358 1.242629 0.000000 0.000000 0.000000 
-24.546045 128.966736 40.591141 0.000000 0.000000 0.000000 -1.083842 -7.182758 -0.458808 -28.926640 8.649460 3.299624 41.320776 15.198370 1.373271 38.313905 2.123794 8.713465 -0.000001 0.000002 -0.000020 0.000000 0.000000 0.000000 -1.083842 -7.182758 -0.458808 -9.673112 -7.097566 -4.116695 25.172056 -18.283219 1.782063 47.085135 0.661295 1.366845 -0.247608 -0.002868 0.663710 0.000000 0.000000 0.000000 -1.083842 -7.182758 -0.458808 -3.459736 -0.004949 0.579558 -6.919346 0.023684 0.025092 0.000000 0.000000 0.000000 0.000000 0.000000 0.000000 -6.919348 0.023681 0.025092 -21.668015 0.750981 -3.479449 -6.895278 -1.555210 2.341041 0.000000 0.000000 0.000000 -6.919348 0.023681 0.025092 4.694372 10.150092 35.601555 0.000000 0.000000 0.000000 -55.970890 -28.479751 -5.930195 -22.073385 -38.996087 3.940812 0.000000 0.000000 0.000000 -6.919348 0.023681 0.025092 1.163577 -7.708488 -36.459492 0.000000 0.000000 0.000000 -62.628279 38.422696 14.987870 -22.639750 21.184667 1.611501 0.000000 0.000000 0.000000 
